ffmpeg started on 2026-01-10 at 20:04:04
Report written to "D:\Convert\FFMetrics\reports\psnr_report-6.txt"
Log level: 32
Command line:
ffmpeg -hide_banner -nostdin -r 25/1 -i "F:\\Convert\\files\\FBS NF 124 (1080P AVC)_HEVC(70).mkv" -r 25/1 -i "F:\\Convert\\files\\FBS NF 124 (1080P AVC).mp4" -lavfi "[0:v]settb=AVTB,setpts=PTS-STARTPTS,format=pix_fmts=yuv420p10le,fps=25/1,scale=1920:804:flags=bicubic:out_range=limited:out_color_matrix=bt709:out_chroma_loc=left,setsar=1/1,setdar=(1920/804)*(1/1),colorspace=format=yuv420p10:range=tv:primaries=bt709:trc=bt709:space=bt709:fast=0[main];[1:v]settb=AVTB,setpts=PTS-STARTPTS,format=pix_fmts=yuv420p,fps=25/1,scale=1920:804:flags=bicubic:out_range=limited:out_color_matrix=bt709:out_chroma_loc=left,setsar=1.000,setdar=2.388,colorspace=format=yuv420p:range=tv:primaries=bt709:trc=bt709:space=bt709:fast=0[ref];[main][ref]psnr=eof_action=endall:stats_file='D\\:/Convert/FFMetrics/logs/psnr_logfile-6.txt'" -f null -
Input #0, matroska,webm, from 'F:\Convert\files\FBS NF 124 (1080P AVC)_HEVC(70).mkv':
  Metadata:
    COMPATIBLE_BRANDS: mp42mp41
    MAJOR_BRAND     : mp42
    MINOR_VERSION   : 0
    ENCODER         : Lavf61.7.100
  Duration: 00:22:02.88, start: -0.021000, bitrate: 3951 kb/s
  Stream #0:0(eng): Video: hevc (Main 10), yuv420p10le(tv, bt709, progressive), 1920x804 [SAR 1:1 DAR 160:67], 25 fps, 25 tbr, 1k tbn (default)
      Metadata:
        HANDLER_NAME    : Mainconcept Video Media Handler
        VENDOR_ID       : [0][0][0][0]
        ENCODER         : Lavc61.19.100 libx265
        BPS             : 3757438
        DURATION        : 00:22:02.840000000
        NUMBER_OF_FRAMES: 33071
        NUMBER_OF_BYTES : 621311308
        _STATISTICS_WRITING_APP: mkvpropedit v94.0 ('Initiate') 64-bit
        _STATISTICS_WRITING_DATE_UTC: 2026-01-10 16:59:10
        _STATISTICS_TAGS: BPS DURATION NUMBER_OF_FRAMES NUMBER_OF_BYTES
  Stream #0:1(eng): Audio: aac (LC), 48000 Hz, stereo, fltp (default)
      Metadata:
        HANDLER_NAME    : #Mainconcept MP4 Sound Media Handler
        VENDOR_ID       : [0][0][0][0]
        ENCODER         : Lavc61.19.100 aac
        BPS             : 189986
        DURATION        : 00:22:02.858000000
        NUMBER_OF_FRAMES: 62010
        NUMBER_OF_BYTES : 31415714
        _STATISTICS_WRITING_APP: mkvpropedit v94.0 ('Initiate') 64-bit
        _STATISTICS_WRITING_DATE_UTC: 2026-01-10 16:59:10
        _STATISTICS_TAGS: BPS DURATION NUMBER_OF_FRAMES NUMBER_OF_BYTES
Input #1, mov,mp4,m4a,3gp,3g2,mj2, from 'F:\Convert\files\FBS NF 124 (1080P AVC).mp4':
  Metadata:
    major_brand     : mp42
    minor_version   : 0
    compatible_brands: mp42mp41
    creation_time   : 2024-12-09T14:39:16.000000Z
  Duration: 00:22:02.84, start: 0.000000, bitrate: 5643 kb/s
  Stream #1:0[0x1](eng): Video: h264 (Main) (avc1 / 0x31637661), yuv420p(tv, bt709, progressive), 1920x804, 5513 kb/s, 25 fps, 25 tbr, 25k tbn (default)
      Metadata:
        creation_time   : 2024-12-09T14:39:16.000000Z
        handler_name    : Mainconcept Video Media Handler
        vendor_id       : [0][0][0][0]
        encoder         : AVC Coding
  Stream #1:1[0x2](eng): Audio: aac (LC) (mp4a / 0x6134706D), 48000 Hz, stereo, fltp, 125 kb/s (default)
      Metadata:
        creation_time   : 2024-12-09T14:39:16.000000Z
        handler_name    : #Mainconcept MP4 Sound Media Handler
        vendor_id       : [0][0][0][0]
Stream mapping:
  Stream #0:0 (hevc) -> settb:default
  Stream #1:0 (h264) -> settb:default
  psnr:default -> Stream #0:0 (wrapped_avframe)
  Stream #0:1 -> #0:1 (aac (native) -> pcm_s16le (native))
Output #0, null, to 'pipe:':
  Metadata:
    COMPATIBLE_BRANDS: mp42mp41
    MAJOR_BRAND     : mp42
    MINOR_VERSION   : 0
    encoder         : Lavf61.7.100
  Stream #0:0: Video: wrapped_avframe, yuv420p10le(tv, bt709, progressive), 1920x804 [SAR 2881:2880 DAR 43:18], q=2-31, 200 kb/s, 25 fps, 25 tbn
      Metadata:
        encoder         : Lavc61.19.100 wrapped_avframe
  Stream #0:1(eng): Audio: pcm_s16le, 48000 Hz, stereo, s16, 1536 kb/s (default)
      Metadata:
        HANDLER_NAME    : #Mainconcept MP4 Sound Media Handler
        VENDOR_ID       : [0][0][0][0]
        _STATISTICS_TAGS: BPS DURATION NUMBER_OF_FRAMES NUMBER_OF_BYTES
        BPS             : 189986
        DURATION        : 00:22:02.858000000
        NUMBER_OF_FRAMES: 62010
        NUMBER_OF_BYTES : 31415714
        _STATISTICS_WRITING_APP: mkvpropedit v94.0 ('Initiate') 64-bit
        _STATISTICS_WRITING_DATE_UTC: 2026-01-10 16:59:10
        encoder         : Lavc61.19.100 pcm_s16le
frame=  185 fps=0.0 q=-0.0 size=N/A time=00:00:07.40 bitrate=N/A speed=14.4x    frame=  282 fps=271 q=-0.0 size=N/A time=00:00:11.28 bitrate=N/A speed=10.8x    frame=  421 fps=271 q=-0.0 size=N/A time=00:00:16.84 bitrate=N/A speed=10.9x    frame=  606 fps=294 q=-0.0 size=N/A time=00:00:24.24 bitrate=N/A speed=11.8x    frame=  818 fps=318 q=-0.0 size=N/A time=00:00:32.72 bitrate=N/A speed=12.7x    frame= 1098 fps=355 q=-0.0 size=N/A time=00:00:43.92 bitrate=N/A speed=14.2x    frame= 1355 fps=375 q=-0.0 size=N/A time=00:00:54.20 bitrate=N/A speed=  15x    frame= 1478 fps=357 q=-0.0 size=N/A time=00:00:59.12 bitrate=N/A speed=14.3x    frame= 1631 fps=350 q=-0.0 size=N/A time=00:01:05.24 bitrate=N/A speed=  14x    frame= 1760 fps=340 q=-0.0 size=N/A time=00:01:10.40 bitrate=N/A speed=13.6x    frame= 1941 fps=341 q=-0.0 size=N/A time=00:01:17.64 bitrate=N/A speed=13.6x    frame= 2162 fps=348 q=-0.0 size=N/A time=00:01:26.48 bitrate=N/A speed=13.9x    frame= 2334 fps=347 q=-0.0 size=N/A time=00:01:33.36 bitrate=N/A speed=13.9x    frame= 2505 fps=347 q=-0.0 size=N/A time=00:01:40.20 bitrate=N/A speed=13.9x    frame= 2651 fps=342 q=-0.0 size=N/A time=00:01:46.04 bitrate=N/A speed=13.7x    frame= 2814 fps=341 q=-0.0 size=N/A time=00:01:52.56 bitrate=N/A speed=13.6x    frame= 2963 fps=338 q=-0.0 size=N/A time=00:01:58.52 bitrate=N/A speed=13.5x    frame= 3098 fps=333 q=-0.0 size=N/A time=00:02:03.92 bitrate=N/A speed=13.3x    frame= 3230 fps=329 q=-0.0 size=N/A time=00:02:09.20 bitrate=N/A speed=13.2x    frame= 3424 fps=332 q=-0.0 size=N/A time=00:02:16.96 bitrate=N/A speed=13.3x    frame= 3667 fps=338 q=-0.0 size=N/A time=00:02:26.68 bitrate=N/A speed=13.5x    frame= 3801 fps=335 q=-0.0 size=N/A time=00:02:32.04 bitrate=N/A speed=13.4x    frame= 3915 fps=330 q=-0.0 size=N/A time=00:02:36.60 bitrate=N/A speed=13.2x    frame= 4049 fps=327 q=-0.0 size=N/A time=00:02:41.96 bitrate=N/A speed=13.1x    frame= 4172 fps=323 q=-0.0 size=N/A time=00:02:46.88 bitrate=N/A speed=12.9x    frame= 4306 fps=321 q=-0.0 size=N/A time=00:02:52.24 bitrate=N/A speed=12.8x    frame= 4442 fps=319 q=-0.0 size=N/A time=00:02:57.68 bitrate=N/A speed=12.7x    frame= 4566 fps=316 q=-0.0 size=N/A time=00:03:02.64 bitrate=N/A speed=12.6x    frame= 4698 fps=314 q=-0.0 size=N/A time=00:03:07.92 bitrate=N/A speed=12.5x    frame= 4815 fps=311 q=-0.0 size=N/A time=00:03:12.60 bitrate=N/A speed=12.4x    frame= 5010 fps=313 q=-0.0 size=N/A time=00:03:20.40 bitrate=N/A speed=12.5x    frame= 5209 fps=315 q=-0.0 size=N/A time=00:03:28.36 bitrate=N/A speed=12.6x    frame= 5358 fps=314 q=-0.0 size=N/A time=00:03:34.32 bitrate=N/A speed=12.6x    frame= 5481 fps=312 q=-0.0 size=N/A time=00:03:39.24 bitrate=N/A speed=12.5x    frame= 5637 fps=312 q=-0.0 size=N/A time=00:03:45.48 bitrate=N/A speed=12.5x    frame= 5733 fps=308 q=-0.0 size=N/A time=00:03:49.32 bitrate=N/A speed=12.3x    frame= 5877 fps=308 q=-0.0 size=N/A time=00:03:55.08 bitrate=N/A speed=12.3x    frame= 6041 fps=308 q=-0.0 size=N/A time=00:04:01.64 bitrate=N/A speed=12.3x    frame= 6214 fps=309 q=-0.0 size=N/A time=00:04:08.56 bitrate=N/A speed=12.4x    frame= 6429 fps=311 q=-0.0 size=N/A time=00:04:17.16 bitrate=N/A speed=12.5x    frame= 6606 fps=312 q=-0.0 size=N/A time=00:04:24.24 bitrate=N/A speed=12.5x    frame= 6780 fps=313 q=-0.0 size=N/A time=00:04:31.20 bitrate=N/A speed=12.5x    frame= 6931 fps=312 q=-0.0 size=N/A time=00:04:37.24 bitrate=N/A speed=12.5x    frame= 7121 fps=314 q=-0.0 size=N/A time=00:04:44.84 bitrate=N/A speed=12.5x    frame= 7261 fps=313 q=-0.0 size=N/A time=00:04:50.44 bitrate=N/A speed=12.5x    frame= 7462 fps=314 q=-0.0 size=N/A time=00:04:58.48 bitrate=N/A speed=12.6x    frame= 7679 fps=317 q=-0.0 size=N/A time=00:05:07.16 bitrate=N/A speed=12.7x    frame= 7865 fps=317 q=-0.0 size=N/A time=00:05:14.60 bitrate=N/A speed=12.7x    frame= 8046 fps=318 q=-0.0 size=N/A time=00:05:21.84 bitrate=N/A speed=12.7x    frame= 8156 fps=316 q=-0.0 size=N/A time=00:05:26.24 bitrate=N/A speed=12.6x    frame= 8330 fps=317 q=-0.0 size=N/A time=00:05:33.20 bitrate=N/A speed=12.7x    frame= 8495 fps=317 q=-0.0 size=N/A time=00:05:39.80 bitrate=N/A speed=12.7x    frame= 8655 fps=316 q=-0.0 size=N/A time=00:05:46.20 bitrate=N/A speed=12.7x    frame= 8800 fps=316 q=-0.0 size=N/A time=00:05:52.00 bitrate=N/A speed=12.6x    frame= 8979 fps=316 q=-0.0 size=N/A time=00:05:59.16 bitrate=N/A speed=12.7x    frame= 9175 fps=318 q=-0.0 size=N/A time=00:06:07.00 bitrate=N/A speed=12.7x    frame= 9370 fps=319 q=-0.0 size=N/A time=00:06:14.80 bitrate=N/A speed=12.7x    frame= 9518 fps=318 q=-0.0 size=N/A time=00:06:20.72 bitrate=N/A speed=12.7x    frame= 9723 fps=319 q=-0.0 size=N/A time=00:06:28.92 bitrate=N/A speed=12.8x    frame= 9927 fps=321 q=-0.0 size=N/A time=00:06:37.08 bitrate=N/A speed=12.8x    frame=10106 fps=321 q=-0.0 size=N/A time=00:06:44.24 bitrate=N/A speed=12.8x    frame=10245 fps=320 q=-0.0 size=N/A time=00:06:49.80 bitrate=N/A speed=12.8x    frame=10451 fps=322 q=-0.0 size=N/A time=00:06:58.04 bitrate=N/A speed=12.9x    frame=10619 fps=322 q=-0.0 size=N/A time=00:07:04.76 bitrate=N/A speed=12.9x    frame=10795 fps=322 q=-0.0 size=N/A time=00:07:11.80 bitrate=N/A speed=12.9x    frame=10978 fps=322 q=-0.0 size=N/A time=00:07:19.12 bitrate=N/A speed=12.9x    frame=11172 fps=323 q=-0.0 size=N/A time=00:07:26.88 bitrate=N/A speed=12.9x    frame=11314 fps=323 q=-0.0 size=N/A time=00:07:32.56 bitrate=N/A speed=12.9x    frame=11475 fps=322 q=-0.0 size=N/A time=00:07:39.04 bitrate=N/A speed=12.9x    frame=11655 fps=323 q=-0.0 size=N/A time=00:07:46.20 bitrate=N/A speed=12.9x    frame=11793 fps=322 q=-0.0 size=N/A time=00:07:51.72 bitrate=N/A speed=12.9x    frame=11983 fps=323 q=-0.0 size=N/A time=00:07:59.32 bitrate=N/A speed=12.9x    frame=12118 fps=322 q=-0.0 size=N/A time=00:08:04.72 bitrate=N/A speed=12.9x    frame=12291 fps=322 q=-0.0 size=N/A time=00:08:11.64 bitrate=N/A speed=12.9x    frame=12476 fps=322 q=-0.0 size=N/A time=00:08:19.04 bitrate=N/A speed=12.9x    frame=12660 fps=323 q=-0.0 size=N/A time=00:08:26.40 bitrate=N/A speed=12.9x    frame=12832 fps=323 q=-0.0 size=N/A time=00:08:33.28 bitrate=N/A speed=12.9x    frame=13007 fps=323 q=-0.0 size=N/A time=00:08:40.28 bitrate=N/A speed=12.9x    frame=13208 fps=324 q=-0.0 size=N/A time=00:08:48.32 bitrate=N/A speed=  13x    frame=13372 fps=324 q=-0.0 size=N/A time=00:08:54.88 bitrate=N/A speed=  13x    frame=13551 fps=324 q=-0.0 size=N/A time=00:09:02.04 bitrate=N/A speed=  13x    frame=13728 fps=325 q=-0.0 size=N/A time=00:09:09.12 bitrate=N/A speed=  13x    frame=13917 fps=325 q=-0.0 size=N/A time=00:09:16.68 bitrate=N/A speed=  13x    frame=14105 fps=326 q=-0.0 size=N/A time=00:09:24.20 bitrate=N/A speed=  13x    frame=14294 fps=326 q=-0.0 size=N/A time=00:09:31.76 bitrate=N/A speed=  13x    frame=14446 fps=326 q=-0.0 size=N/A time=00:09:37.84 bitrate=N/A speed=  13x    frame=14617 fps=326 q=-0.0 size=N/A time=00:09:44.68 bitrate=N/A speed=  13x    frame=14790 fps=326 q=-0.0 size=N/A time=00:09:51.60 bitrate=N/A speed=  13x    frame=14961 fps=326 q=-0.0 size=N/A time=00:09:58.44 bitrate=N/A speed=  13x    frame=15151 fps=326 q=-0.0 size=N/A time=00:10:06.04 bitrate=N/A speed=13.1x    frame=15361 fps=327 q=-0.0 size=N/A time=00:10:14.44 bitrate=N/A speed=13.1x    frame=15517 fps=327 q=-0.0 size=N/A time=00:10:20.68 bitrate=N/A speed=13.1x    frame=15709 fps=327 q=-0.0 size=N/A time=00:10:28.36 bitrate=N/A speed=13.1x    frame=15920 fps=328 q=-0.0 size=N/A time=00:10:36.80 bitrate=N/A speed=13.1x    frame=16119 fps=329 q=-0.0 size=N/A time=00:10:44.76 bitrate=N/A speed=13.2x    frame=16326 fps=330 q=-0.0 size=N/A time=00:10:53.04 bitrate=N/A speed=13.2x    frame=16541 fps=331 q=-0.0 size=N/A time=00:11:01.64 bitrate=N/A speed=13.2x    frame=16716 fps=331 q=-0.0 size=N/A time=00:11:08.64 bitrate=N/A speed=13.2x    frame=16881 fps=331 q=-0.0 size=N/A time=00:11:15.24 bitrate=N/A speed=13.2x    frame=17072 fps=331 q=-0.0 size=N/A time=00:11:22.88 bitrate=N/A speed=13.2x    frame=17269 fps=331 q=-0.0 size=N/A time=00:11:30.76 bitrate=N/A speed=13.3x    frame=17443 fps=332 q=-0.0 size=N/A time=00:11:37.72 bitrate=N/A speed=13.3x    frame=17614 fps=331 q=-0.0 size=N/A time=00:11:44.56 bitrate=N/A speed=13.3x    frame=17797 fps=332 q=-0.0 size=N/A time=00:11:51.88 bitrate=N/A speed=13.3x    frame=17991 fps=332 q=-0.0 size=N/A time=00:11:59.64 bitrate=N/A speed=13.3x    frame=18116 fps=331 q=-0.0 size=N/A time=00:12:04.64 bitrate=N/A speed=13.2x    frame=18264 fps=331 q=-0.0 size=N/A time=00:12:10.56 bitrate=N/A speed=13.2x    frame=18469 fps=331 q=-0.0 size=N/A time=00:12:18.76 bitrate=N/A speed=13.3x    frame=18637 fps=331 q=-0.0 size=N/A time=00:12:25.48 bitrate=N/A speed=13.3x    frame=18817 fps=332 q=-0.0 size=N/A time=00:12:32.68 bitrate=N/A speed=13.3x    frame=19001 fps=332 q=-0.0 size=N/A time=00:12:40.04 bitrate=N/A speed=13.3x    frame=19146 fps=331 q=-0.0 size=N/A time=00:12:45.88 bitrate=N/A speed=13.3x    frame=19331 fps=332 q=-0.0 size=N/A time=00:12:53.24 bitrate=N/A speed=13.3x    frame=19564 fps=333 q=-0.0 size=N/A time=00:13:02.56 bitrate=N/A speed=13.3x    frame=19783 fps=333 q=-0.0 size=N/A time=00:13:11.32 bitrate=N/A speed=13.3x    frame=19994 fps=334 q=-0.0 size=N/A time=00:13:19.76 bitrate=N/A speed=13.4x    frame=20158 fps=334 q=-0.0 size=N/A time=00:13:26.32 bitrate=N/A speed=13.4x    frame=20380 fps=335 q=-0.0 size=N/A time=00:13:35.20 bitrate=N/A speed=13.4x    frame=20564 fps=335 q=-0.0 size=N/A time=00:13:42.56 bitrate=N/A speed=13.4x    frame=20754 fps=335 q=-0.0 size=N/A time=00:13:50.16 bitrate=N/A speed=13.4x    frame=20948 fps=336 q=-0.0 size=N/A time=00:13:57.92 bitrate=N/A speed=13.4x    frame=21151 fps=336 q=-0.0 size=N/A time=00:14:06.04 bitrate=N/A speed=13.4x    frame=21333 fps=336 q=-0.0 size=N/A time=00:14:13.32 bitrate=N/A speed=13.4x    frame=21489 fps=336 q=-0.0 size=N/A time=00:14:19.56 bitrate=N/A speed=13.4x    frame=21684 fps=336 q=-0.0 size=N/A time=00:14:27.36 bitrate=N/A speed=13.4x    frame=21901 fps=337 q=-0.0 size=N/A time=00:14:36.04 bitrate=N/A speed=13.5x    frame=22123 fps=338 q=-0.0 size=N/A time=00:14:44.92 bitrate=N/A speed=13.5x    frame=22336 fps=338 q=-0.0 size=N/A time=00:14:53.44 bitrate=N/A speed=13.5x    frame=22545 fps=339 q=-0.0 size=N/A time=00:15:01.80 bitrate=N/A speed=13.5x    frame=22740 fps=339 q=-0.0 size=N/A time=00:15:09.60 bitrate=N/A speed=13.6x    frame=22941 fps=339 q=-0.0 size=N/A time=00:15:17.64 bitrate=N/A speed=13.6x    frame=23126 fps=339 q=-0.0 size=N/A time=00:15:25.04 bitrate=N/A speed=13.6x    frame=23273 fps=339 q=-0.0 size=N/A time=00:15:30.92 bitrate=N/A speed=13.6x    frame=23421 fps=339 q=-0.0 size=N/A time=00:15:36.84 bitrate=N/A speed=13.6x    frame=23601 fps=339 q=-0.0 size=N/A time=00:15:44.04 bitrate=N/A speed=13.6x    frame=23759 fps=339 q=-0.0 size=N/A time=00:15:50.36 bitrate=N/A speed=13.5x    frame=23959 fps=339 q=-0.0 size=N/A time=00:15:58.36 bitrate=N/A speed=13.6x    frame=24135 fps=339 q=-0.0 size=N/A time=00:16:05.40 bitrate=N/A speed=13.6x    frame=24316 fps=339 q=-0.0 size=N/A time=00:16:12.64 bitrate=N/A speed=13.6x    frame=24524 fps=339 q=-0.0 size=N/A time=00:16:20.96 bitrate=N/A speed=13.6x    frame=24707 fps=340 q=-0.0 size=N/A time=00:16:28.28 bitrate=N/A speed=13.6x    frame=24889 fps=340 q=-0.0 size=N/A time=00:16:35.56 bitrate=N/A speed=13.6x    frame=25077 fps=340 q=-0.0 size=N/A time=00:16:43.08 bitrate=N/A speed=13.6x    frame=25288 fps=340 q=-0.0 size=N/A time=00:16:51.52 bitrate=N/A speed=13.6x    frame=25448 fps=340 q=-0.0 size=N/A time=00:16:57.92 bitrate=N/A speed=13.6x    frame=25622 fps=340 q=-0.0 size=N/A time=00:17:04.88 bitrate=N/A speed=13.6x    frame=25789 fps=340 q=-0.0 size=N/A time=00:17:11.56 bitrate=N/A speed=13.6x    frame=25959 fps=340 q=-0.0 size=N/A time=00:17:18.40 bitrate=N/A speed=13.6x    frame=26159 fps=340 q=-0.0 size=N/A time=00:17:26.36 bitrate=N/A speed=13.6x    frame=26341 fps=340 q=-0.0 size=N/A time=00:17:33.64 bitrate=N/A speed=13.6x    frame=26518 fps=340 q=-0.0 size=N/A time=00:17:40.72 bitrate=N/A speed=13.6x    frame=26655 fps=340 q=-0.0 size=N/A time=00:17:46.20 bitrate=N/A speed=13.6x    frame=26858 fps=340 q=-0.0 size=N/A time=00:17:54.32 bitrate=N/A speed=13.6x    frame=27059 fps=340 q=-0.0 size=N/A time=00:18:02.36 bitrate=N/A speed=13.6x    frame=27293 fps=341 q=-0.0 size=N/A time=00:18:11.72 bitrate=N/A speed=13.6x    frame=27494 fps=342 q=-0.0 size=N/A time=00:18:19.76 bitrate=N/A speed=13.7x    frame=27693 fps=342 q=-0.0 size=N/A time=00:18:27.72 bitrate=N/A speed=13.7x    frame=27895 fps=342 q=-0.0 size=N/A time=00:18:35.80 bitrate=N/A speed=13.7x    frame=28050 fps=342 q=-0.0 size=N/A time=00:18:42.00 bitrate=N/A speed=13.7x    frame=28258 fps=342 q=-0.0 size=N/A time=00:18:50.32 bitrate=N/A speed=13.7x    frame=28399 fps=342 q=-0.0 size=N/A time=00:18:55.96 bitrate=N/A speed=13.7x    frame=28574 fps=342 q=-0.0 size=N/A time=00:19:02.96 bitrate=N/A speed=13.7x    frame=28770 fps=342 q=-0.0 size=N/A time=00:19:10.80 bitrate=N/A speed=13.7x    frame=28972 fps=342 q=-0.0 size=N/A time=00:19:18.88 bitrate=N/A speed=13.7x    frame=29163 fps=342 q=-0.0 size=N/A time=00:19:26.52 bitrate=N/A speed=13.7x    frame=29363 fps=343 q=-0.0 size=N/A time=00:19:34.52 bitrate=N/A speed=13.7x    frame=29567 fps=343 q=-0.0 size=N/A time=00:19:42.68 bitrate=N/A speed=13.7x    frame=29770 fps=343 q=-0.0 size=N/A time=00:19:50.80 bitrate=N/A speed=13.7x    frame=29971 fps=344 q=-0.0 size=N/A time=00:19:58.84 bitrate=N/A speed=13.7x    frame=30163 fps=344 q=-0.0 size=N/A time=00:20:06.52 bitrate=N/A speed=13.8x    frame=30349 fps=344 q=-0.0 size=N/A time=00:20:13.96 bitrate=N/A speed=13.8x    frame=30513 fps=344 q=-0.0 size=N/A time=00:20:20.52 bitrate=N/A speed=13.7x    frame=30693 fps=344 q=-0.0 size=N/A time=00:20:27.72 bitrate=N/A speed=13.7x    frame=30913 fps=344 q=-0.0 size=N/A time=00:20:36.52 bitrate=N/A speed=13.8x    frame=31108 fps=344 q=-0.0 size=N/A time=00:20:44.32 bitrate=N/A speed=13.8x    frame=31289 fps=344 q=-0.0 size=N/A time=00:20:51.56 bitrate=N/A speed=13.8x    frame=31481 fps=345 q=-0.0 size=N/A time=00:20:59.24 bitrate=N/A speed=13.8x    frame=31703 fps=345 q=-0.0 size=N/A time=00:21:08.12 bitrate=N/A speed=13.8x    frame=31908 fps=345 q=-0.0 size=N/A time=00:21:16.32 bitrate=N/A speed=13.8x    frame=32105 fps=346 q=-0.0 size=N/A time=00:21:24.20 bitrate=N/A speed=13.8x    frame=32249 fps=345 q=-0.0 size=N/A time=00:21:29.96 bitrate=N/A speed=13.8x    frame=32419 fps=345 q=-0.0 size=N/A time=00:21:36.76 bitrate=N/A speed=13.8x    frame=32627 fps=345 q=-0.0 size=N/A time=00:21:45.08 bitrate=N/A speed=13.8x    frame=32899 fps=346 q=-0.0 size=N/A time=00:21:55.96 bitrate=N/A speed=13.9x    [Parsed_psnr_16 @ 0000021d3ce64f00] PSNR y:43.503080 u:47.542464 v:48.485277 average:44.552503 min:31.726090 max:inf
[out#0/null @ 0000021d3bae7ac0] video:14210KiB audio:248040KiB subtitle:0KiB other streams:0KiB global headers:0KiB muxing overhead: unknown
frame=33071 fps=347 q=-0.0 Lsize=N/A time=00:22:02.84 bitrate=N/A speed=13.9x    
